<svg width="3000" height="3000" viewBox="0 0 3000 3000" fill="none" xmlns="http://www.w3.org/2000/svg">
<path d="M1188.45 541.909C1060.46 604.333 970.279 674.015 941.188 701.053C1285.66 618.46 1641.84 690.225 1921 885.209C1726.5 580 1485.5 481.5 1437 451.809C1352.86 472.463 1269.56 502.346 1188.45 541.909Z" fill="#D2D2D2"/>
<path d="M1479.5 2706C2154.67 2706 2702 2164.49 2702 1496.5C2702 828.512 2154.67 287 1479.5 287C1337.1 287 1225.5 310.145 1187.5 321.718C1734.15 443.329 2138 925.165 2138 1502.51C2138 2067.11 1743.48 2543.21 1215 2677.62C1254.33 2687.08 1362.3 2706 1479.5 2706Z" fill="url(#paint0_linear_10_21)"/>
<path d="M2032.5 1877C1861.5 1868.5 1611.5 1863 1140 1616C1094.5 1592.16 932.5 1508.31 843.5 1487C558.5 1418.77 436.976 1481.1 279.002 1506C278.5 1976 571.498 2482.5 1134.5 2651.5C1651.5 2545 1937.5 2168.5 2032.5 1877Z" fill="#BCBCBC"/>
<defs>
<linearGradient id="paint0_linear_10_21" x1="1945" y1="861.5" x2="1944.75" y2="2706" gradientUnits="userSpaceOnUse">
<stop stop-color="#F1F1F1"/>
<stop offset="1" stop-color="#BCBCBC"/>
</linearGradient>
</defs>
</svg>
