<svg width="4115" height="2062" viewBox="0 0 4115 2062" fill="none" xmlns="http://www.w3.org/2000/svg">
<g clip-path="url(#clip0_23_3)">
<path d="M1370 1983V1728H1290V1983H1370Z" fill="#812990"/>
<path d="M295.464 0H1290.91L1290.91 289.301H1203.21V1104.6H1290.91V1393.9H527.882C444.563 1393.9 444.563 1271.17 527.882 1271.17H571.734C593.661 1271.17 593.661 1236.1 571.734 1236.1H444.563C352.473 1236.1 352.473 1104.6 444.563 1104.6H694.521V289.301H378.784C295.464 289.301 295.464 166.567 378.784 166.567H466.489C487.538 166.567 488.415 131.5 466.489 131.5H295.464C198.99 131.5 203.375 0 295.464 0Z" fill="#812990"/>
<path d="M1352.3 289.301V0H2018.86V289.301H1948.7V946.803C1948.7 1087.07 2154.8 1100.22 2154.8 959.953V289.301H2089.02V0H2702.96V289.301H2615.25V898.586C2615.25 1560.47 1440.01 1560.47 1440.01 898.586V289.301H1352.3Z" fill="#812990"/>
<path d="M2764.35 429.568V0H4115V429.568H3808.03V289.301H3694.02V1104.6H3816.8V1393.9H3062.54V1104.6H3185.33V289.301H3071.32V429.568H2764.35Z" fill="#812990"/>
<path d="M128.826 0H67.4331C-24.6574 0 -20.2713 131.5 67.4331 131.5H128.826C216.53 131.5 216.53 0 128.826 0Z" fill="#812990"/>
<path d="M545.927 1649H879.173V1728.09H545.927V1982.91H879.173V2062H545.927L467 1982.91V1728.09L545.927 1649Z" fill="#812990"/>
<path d="M1037.03 1649L958.099 1728.09V1982.91L1037.03 2062H1291.35L1370.27 1982.91H1291.35H1037.03V1728.09H1291.35H1370.27L1291.35 1649H1037.03Z" fill="#812990"/>
<path d="M1449.2 1728.09V2062H1528.13V1728.09H1782.44V2062H1861.37V1728.09L1782.44 1649H1528.13L1449.2 1728.09Z" fill="#812990"/>
<path d="M1940.3 2062V1728.09L2019.23 1649H2273.54L2352.47 1728.09V2062H2273.54V1728.09H2019.23V2062H1940.3Z" fill="#812990"/>
<path d="M2431.4 1982.91V1728.09L2510.32 1649H2843.57V1728.09H2510.32V1815.96H2764.64V1895.04H2510.32V1982.91H2843.57V2062H2510.32L2431.4 1982.91Z" fill="#812990"/>
<path d="M2922.5 1982.91V1728.09L3001.42 1649H3334.67V1728.09H3001.42V1982.91H3334.67V2062H3001.42L2922.5 1982.91Z" fill="#812990"/>
<path d="M3413.6 1728.09V1649H3817V1728.09H3650.38V2062H3571.45V1728.09H3413.6Z" fill="#812990"/>
</g>
<defs>
<clipPath id="clip0_23_3">
<rect width="4115" height="2062" fill="white"/>
</clipPath>
</defs>
</svg>